<mxfile host="app.diagrams.net" modified="2024-05-28T06:06:37.460Z" agent="Mozilla/5.0 (Windows NT 10.0; Win64; x64) AppleWebKit/537.36 (KHTML, like Gecko) Chrome/125.0.0.0 Safari/537.36" etag="2fvNQPpfRqAnMPKFEGuP" version="24.4.9" type="device">
  <diagram name="Page-1" id="J0IpdhArh6vapW0QeVqd">
    <mxGraphModel dx="1757" dy="1246" grid="1" gridSize="10" guides="1" tooltips="1" connect="1" arrows="1" fold="1" page="0" pageScale="1" pageWidth="827" pageHeight="1169" math="0" shadow="0">
      <root>
        <mxCell id="0" />
        <mxCell id="1" parent="0" />
        <mxCell id="mdkrM7BEaHMVwPcZZWFq-1" value="Init" style="ellipse;whiteSpace=wrap;html=1;" parent="1" vertex="1">
          <mxGeometry x="-360" y="-440" width="80" height="40" as="geometry" />
        </mxCell>
        <mxCell id="54TuPCq6Pwy8j5fSVQwx-1" value="pairing" style="ellipse;whiteSpace=wrap;html=1;" vertex="1" parent="1">
          <mxGeometry x="-280" y="-380" width="80" height="40" as="geometry" />
        </mxCell>
        <mxCell id="54TuPCq6Pwy8j5fSVQwx-2" value="Wait" style="ellipse;whiteSpace=wrap;html=1;" vertex="1" parent="1">
          <mxGeometry x="-360" y="-320" width="80" height="40" as="geometry" />
        </mxCell>
        <mxCell id="54TuPCq6Pwy8j5fSVQwx-3" value="" style="endArrow=classic;html=1;rounded=0;exitX=0.5;exitY=1;exitDx=0;exitDy=0;entryX=0.5;entryY=0;entryDx=0;entryDy=0;" edge="1" parent="1" source="mdkrM7BEaHMVwPcZZWFq-1" target="54TuPCq6Pwy8j5fSVQwx-2">
          <mxGeometry width="50" height="50" relative="1" as="geometry">
            <mxPoint x="-240" y="-380" as="sourcePoint" />
            <mxPoint x="-190" y="-430" as="targetPoint" />
          </mxGeometry>
        </mxCell>
        <mxCell id="54TuPCq6Pwy8j5fSVQwx-4" value="" style="endArrow=classic;html=1;rounded=0;exitX=1;exitY=1;exitDx=0;exitDy=0;entryX=0;entryY=0;entryDx=0;entryDy=0;" edge="1" parent="1" source="mdkrM7BEaHMVwPcZZWFq-1" target="54TuPCq6Pwy8j5fSVQwx-1">
          <mxGeometry width="50" height="50" relative="1" as="geometry">
            <mxPoint x="-240" y="-380" as="sourcePoint" />
            <mxPoint x="-190" y="-430" as="targetPoint" />
          </mxGeometry>
        </mxCell>
        <mxCell id="54TuPCq6Pwy8j5fSVQwx-5" value="" style="endArrow=classic;html=1;rounded=0;exitX=0;exitY=1;exitDx=0;exitDy=0;entryX=1;entryY=0;entryDx=0;entryDy=0;" edge="1" parent="1" source="54TuPCq6Pwy8j5fSVQwx-1" target="54TuPCq6Pwy8j5fSVQwx-2">
          <mxGeometry width="50" height="50" relative="1" as="geometry">
            <mxPoint x="-240" y="-380" as="sourcePoint" />
            <mxPoint x="-190" y="-430" as="targetPoint" />
          </mxGeometry>
        </mxCell>
        <mxCell id="54TuPCq6Pwy8j5fSVQwx-6" value="Send&lt;div&gt;Request&lt;/div&gt;" style="ellipse;whiteSpace=wrap;html=1;" vertex="1" parent="1">
          <mxGeometry x="-240" y="-260" width="80" height="40" as="geometry" />
        </mxCell>
        <mxCell id="54TuPCq6Pwy8j5fSVQwx-7" value="Wait&lt;div&gt;Answer&lt;/div&gt;" style="ellipse;whiteSpace=wrap;html=1;" vertex="1" parent="1">
          <mxGeometry x="-240" y="-160" width="80" height="40" as="geometry" />
        </mxCell>
        <mxCell id="54TuPCq6Pwy8j5fSVQwx-8" value="Wait" style="ellipse;whiteSpace=wrap;html=1;" vertex="1" parent="1">
          <mxGeometry x="-360" y="-160" width="80" height="40" as="geometry" />
        </mxCell>
        <mxCell id="54TuPCq6Pwy8j5fSVQwx-9" value="Enter" style="ellipse;whiteSpace=wrap;html=1;" vertex="1" parent="1">
          <mxGeometry x="-360" y="-220" width="80" height="40" as="geometry" />
        </mxCell>
        <mxCell id="54TuPCq6Pwy8j5fSVQwx-10" value="busy" style="ellipse;whiteSpace=wrap;html=1;" vertex="1" parent="1">
          <mxGeometry x="-360" y="-100" width="80" height="40" as="geometry" />
        </mxCell>
        <mxCell id="54TuPCq6Pwy8j5fSVQwx-12" value="" style="endArrow=classic;html=1;rounded=0;exitX=1;exitY=1;exitDx=0;exitDy=0;entryX=0;entryY=0;entryDx=0;entryDy=0;" edge="1" parent="1" source="54TuPCq6Pwy8j5fSVQwx-2" target="54TuPCq6Pwy8j5fSVQwx-6">
          <mxGeometry width="50" height="50" relative="1" as="geometry">
            <mxPoint x="-240" y="-190" as="sourcePoint" />
            <mxPoint x="-190" y="-240" as="targetPoint" />
          </mxGeometry>
        </mxCell>
        <mxCell id="54TuPCq6Pwy8j5fSVQwx-13" value="" style="endArrow=classic;html=1;rounded=0;exitX=0.5;exitY=1;exitDx=0;exitDy=0;entryX=0.5;entryY=0;entryDx=0;entryDy=0;" edge="1" parent="1" source="54TuPCq6Pwy8j5fSVQwx-6" target="54TuPCq6Pwy8j5fSVQwx-7">
          <mxGeometry width="50" height="50" relative="1" as="geometry">
            <mxPoint x="-240" y="-190" as="sourcePoint" />
            <mxPoint x="-190" y="-240" as="targetPoint" />
          </mxGeometry>
        </mxCell>
        <mxCell id="54TuPCq6Pwy8j5fSVQwx-14" value="" style="endArrow=classic;html=1;rounded=0;exitX=0;exitY=0;exitDx=0;exitDy=0;entryX=1;entryY=1;entryDx=0;entryDy=0;" edge="1" parent="1" source="54TuPCq6Pwy8j5fSVQwx-7" target="54TuPCq6Pwy8j5fSVQwx-9">
          <mxGeometry width="50" height="50" relative="1" as="geometry">
            <mxPoint x="-240" y="-190" as="sourcePoint" />
            <mxPoint x="-190" y="-240" as="targetPoint" />
          </mxGeometry>
        </mxCell>
        <mxCell id="54TuPCq6Pwy8j5fSVQwx-15" value="" style="endArrow=classic;html=1;rounded=0;entryX=1;entryY=0.5;entryDx=0;entryDy=0;exitX=0;exitY=0.5;exitDx=0;exitDy=0;" edge="1" parent="1" source="54TuPCq6Pwy8j5fSVQwx-7" target="54TuPCq6Pwy8j5fSVQwx-8">
          <mxGeometry width="50" height="50" relative="1" as="geometry">
            <mxPoint x="-60" y="-100" as="sourcePoint" />
            <mxPoint x="-10" y="-150" as="targetPoint" />
          </mxGeometry>
        </mxCell>
        <mxCell id="54TuPCq6Pwy8j5fSVQwx-16" value="" style="endArrow=classic;html=1;rounded=0;exitX=0;exitY=1;exitDx=0;exitDy=0;entryX=1;entryY=0;entryDx=0;entryDy=0;" edge="1" parent="1" source="54TuPCq6Pwy8j5fSVQwx-7" target="54TuPCq6Pwy8j5fSVQwx-10">
          <mxGeometry width="50" height="50" relative="1" as="geometry">
            <mxPoint x="-240" y="-190" as="sourcePoint" />
            <mxPoint x="-190" y="-240" as="targetPoint" />
          </mxGeometry>
        </mxCell>
        <mxCell id="54TuPCq6Pwy8j5fSVQwx-19" value="Wait&lt;div&gt;display&lt;/div&gt;" style="ellipse;whiteSpace=wrap;html=1;" vertex="1" parent="1">
          <mxGeometry x="-480" y="-160" width="80" height="40" as="geometry" />
        </mxCell>
        <mxCell id="54TuPCq6Pwy8j5fSVQwx-20" value="" style="endArrow=classic;html=1;rounded=0;exitX=0;exitY=1;exitDx=0;exitDy=0;" edge="1" parent="1" source="54TuPCq6Pwy8j5fSVQwx-9" target="54TuPCq6Pwy8j5fSVQwx-19">
          <mxGeometry width="50" height="50" relative="1" as="geometry">
            <mxPoint x="-450" y="-230" as="sourcePoint" />
            <mxPoint x="-400" y="-280" as="targetPoint" />
          </mxGeometry>
        </mxCell>
        <mxCell id="54TuPCq6Pwy8j5fSVQwx-21" value="" style="endArrow=classic;html=1;rounded=0;exitX=0;exitY=0.5;exitDx=0;exitDy=0;entryX=1;entryY=0.5;entryDx=0;entryDy=0;" edge="1" parent="1" source="54TuPCq6Pwy8j5fSVQwx-8" target="54TuPCq6Pwy8j5fSVQwx-19">
          <mxGeometry width="50" height="50" relative="1" as="geometry">
            <mxPoint x="-240" y="-190" as="sourcePoint" />
            <mxPoint x="-190" y="-240" as="targetPoint" />
          </mxGeometry>
        </mxCell>
        <mxCell id="54TuPCq6Pwy8j5fSVQwx-22" value="" style="endArrow=classic;html=1;rounded=0;entryX=1;entryY=1;entryDx=0;entryDy=0;" edge="1" parent="1" source="54TuPCq6Pwy8j5fSVQwx-10" target="54TuPCq6Pwy8j5fSVQwx-19">
          <mxGeometry width="50" height="50" relative="1" as="geometry">
            <mxPoint x="-430" y="-40" as="sourcePoint" />
            <mxPoint x="-380" y="-90" as="targetPoint" />
          </mxGeometry>
        </mxCell>
        <mxCell id="54TuPCq6Pwy8j5fSVQwx-23" value="" style="endArrow=classic;html=1;rounded=0;entryX=0;entryY=0.5;entryDx=0;entryDy=0;exitX=0.5;exitY=0;exitDx=0;exitDy=0;" edge="1" parent="1" source="54TuPCq6Pwy8j5fSVQwx-19" target="54TuPCq6Pwy8j5fSVQwx-2">
          <mxGeometry width="50" height="50" relative="1" as="geometry">
            <mxPoint x="-430" y="-240" as="sourcePoint" />
            <mxPoint x="-380" y="-290" as="targetPoint" />
            <Array as="points">
              <mxPoint x="-440" y="-300" />
            </Array>
          </mxGeometry>
        </mxCell>
        <mxCell id="54TuPCq6Pwy8j5fSVQwx-24" value="Init" style="ellipse;whiteSpace=wrap;html=1;" vertex="1" parent="1">
          <mxGeometry y="-440" width="80" height="40" as="geometry" />
        </mxCell>
        <mxCell id="54TuPCq6Pwy8j5fSVQwx-25" value="pairing" style="ellipse;whiteSpace=wrap;html=1;" vertex="1" parent="1">
          <mxGeometry x="80" y="-380" width="80" height="40" as="geometry" />
        </mxCell>
        <mxCell id="54TuPCq6Pwy8j5fSVQwx-26" value="Wait" style="ellipse;whiteSpace=wrap;html=1;" vertex="1" parent="1">
          <mxGeometry y="-320" width="80" height="40" as="geometry" />
        </mxCell>
        <mxCell id="54TuPCq6Pwy8j5fSVQwx-27" value="" style="endArrow=classic;html=1;rounded=0;exitX=0.5;exitY=1;exitDx=0;exitDy=0;entryX=0.5;entryY=0;entryDx=0;entryDy=0;" edge="1" parent="1" source="54TuPCq6Pwy8j5fSVQwx-24" target="54TuPCq6Pwy8j5fSVQwx-26">
          <mxGeometry width="50" height="50" relative="1" as="geometry">
            <mxPoint x="120" y="-380" as="sourcePoint" />
            <mxPoint x="170" y="-430" as="targetPoint" />
          </mxGeometry>
        </mxCell>
        <mxCell id="54TuPCq6Pwy8j5fSVQwx-28" value="" style="endArrow=classic;html=1;rounded=0;exitX=1;exitY=1;exitDx=0;exitDy=0;entryX=0;entryY=0;entryDx=0;entryDy=0;" edge="1" parent="1" source="54TuPCq6Pwy8j5fSVQwx-24" target="54TuPCq6Pwy8j5fSVQwx-25">
          <mxGeometry width="50" height="50" relative="1" as="geometry">
            <mxPoint x="120" y="-380" as="sourcePoint" />
            <mxPoint x="170" y="-430" as="targetPoint" />
          </mxGeometry>
        </mxCell>
        <mxCell id="54TuPCq6Pwy8j5fSVQwx-29" value="" style="endArrow=classic;html=1;rounded=0;exitX=0;exitY=1;exitDx=0;exitDy=0;entryX=1;entryY=0;entryDx=0;entryDy=0;" edge="1" parent="1" source="54TuPCq6Pwy8j5fSVQwx-25" target="54TuPCq6Pwy8j5fSVQwx-26">
          <mxGeometry width="50" height="50" relative="1" as="geometry">
            <mxPoint x="120" y="-380" as="sourcePoint" />
            <mxPoint x="170" y="-430" as="targetPoint" />
          </mxGeometry>
        </mxCell>
        <mxCell id="54TuPCq6Pwy8j5fSVQwx-30" value="&lt;div&gt;Get&lt;/div&gt;&lt;div&gt;Request&lt;/div&gt;" style="ellipse;whiteSpace=wrap;html=1;" vertex="1" parent="1">
          <mxGeometry x="120" y="-260" width="80" height="40" as="geometry" />
        </mxCell>
        <mxCell id="54TuPCq6Pwy8j5fSVQwx-31" value="Wait&lt;div&gt;Answer&lt;/div&gt;" style="ellipse;whiteSpace=wrap;html=1;" vertex="1" parent="1">
          <mxGeometry x="120" y="-160" width="80" height="40" as="geometry" />
        </mxCell>
        <mxCell id="54TuPCq6Pwy8j5fSVQwx-32" value="&lt;div&gt;Send&lt;/div&gt;Wait" style="ellipse;whiteSpace=wrap;html=1;" vertex="1" parent="1">
          <mxGeometry y="-160" width="80" height="40" as="geometry" />
        </mxCell>
        <mxCell id="54TuPCq6Pwy8j5fSVQwx-33" value="&lt;div&gt;Send&lt;/div&gt;Enter" style="ellipse;whiteSpace=wrap;html=1;" vertex="1" parent="1">
          <mxGeometry y="-220" width="80" height="40" as="geometry" />
        </mxCell>
        <mxCell id="54TuPCq6Pwy8j5fSVQwx-34" value="&lt;div&gt;Send&lt;/div&gt;busy" style="ellipse;whiteSpace=wrap;html=1;" vertex="1" parent="1">
          <mxGeometry y="-100" width="80" height="40" as="geometry" />
        </mxCell>
        <mxCell id="54TuPCq6Pwy8j5fSVQwx-35" value="" style="endArrow=classic;html=1;rounded=0;exitX=1;exitY=1;exitDx=0;exitDy=0;entryX=0;entryY=0;entryDx=0;entryDy=0;" edge="1" parent="1" source="54TuPCq6Pwy8j5fSVQwx-26" target="54TuPCq6Pwy8j5fSVQwx-30">
          <mxGeometry width="50" height="50" relative="1" as="geometry">
            <mxPoint x="120" y="-190" as="sourcePoint" />
            <mxPoint x="170" y="-240" as="targetPoint" />
          </mxGeometry>
        </mxCell>
        <mxCell id="54TuPCq6Pwy8j5fSVQwx-36" value="" style="endArrow=classic;html=1;rounded=0;exitX=0.5;exitY=1;exitDx=0;exitDy=0;entryX=0.5;entryY=0;entryDx=0;entryDy=0;" edge="1" parent="1" source="54TuPCq6Pwy8j5fSVQwx-30" target="54TuPCq6Pwy8j5fSVQwx-31">
          <mxGeometry width="50" height="50" relative="1" as="geometry">
            <mxPoint x="120" y="-190" as="sourcePoint" />
            <mxPoint x="170" y="-240" as="targetPoint" />
          </mxGeometry>
        </mxCell>
        <mxCell id="54TuPCq6Pwy8j5fSVQwx-37" value="" style="endArrow=classic;html=1;rounded=0;exitX=0;exitY=0;exitDx=0;exitDy=0;entryX=1;entryY=1;entryDx=0;entryDy=0;" edge="1" parent="1" source="54TuPCq6Pwy8j5fSVQwx-31" target="54TuPCq6Pwy8j5fSVQwx-33">
          <mxGeometry width="50" height="50" relative="1" as="geometry">
            <mxPoint x="120" y="-190" as="sourcePoint" />
            <mxPoint x="170" y="-240" as="targetPoint" />
          </mxGeometry>
        </mxCell>
        <mxCell id="54TuPCq6Pwy8j5fSVQwx-38" value="" style="endArrow=classic;html=1;rounded=0;entryX=1;entryY=0.5;entryDx=0;entryDy=0;exitX=0;exitY=0.5;exitDx=0;exitDy=0;" edge="1" parent="1" source="54TuPCq6Pwy8j5fSVQwx-31" target="54TuPCq6Pwy8j5fSVQwx-32">
          <mxGeometry width="50" height="50" relative="1" as="geometry">
            <mxPoint x="300" y="-100" as="sourcePoint" />
            <mxPoint x="350" y="-150" as="targetPoint" />
          </mxGeometry>
        </mxCell>
        <mxCell id="54TuPCq6Pwy8j5fSVQwx-39" value="" style="endArrow=classic;html=1;rounded=0;exitX=0;exitY=1;exitDx=0;exitDy=0;entryX=1;entryY=0;entryDx=0;entryDy=0;" edge="1" parent="1" source="54TuPCq6Pwy8j5fSVQwx-31" target="54TuPCq6Pwy8j5fSVQwx-34">
          <mxGeometry width="50" height="50" relative="1" as="geometry">
            <mxPoint x="120" y="-190" as="sourcePoint" />
            <mxPoint x="170" y="-240" as="targetPoint" />
          </mxGeometry>
        </mxCell>
        <mxCell id="54TuPCq6Pwy8j5fSVQwx-40" value="Wait&lt;div&gt;display&lt;/div&gt;" style="ellipse;whiteSpace=wrap;html=1;" vertex="1" parent="1">
          <mxGeometry x="-120" y="-160" width="80" height="40" as="geometry" />
        </mxCell>
        <mxCell id="54TuPCq6Pwy8j5fSVQwx-41" value="" style="endArrow=classic;html=1;rounded=0;exitX=0;exitY=1;exitDx=0;exitDy=0;" edge="1" parent="1" source="54TuPCq6Pwy8j5fSVQwx-33" target="54TuPCq6Pwy8j5fSVQwx-40">
          <mxGeometry width="50" height="50" relative="1" as="geometry">
            <mxPoint x="-90" y="-230" as="sourcePoint" />
            <mxPoint x="-40" y="-280" as="targetPoint" />
          </mxGeometry>
        </mxCell>
        <mxCell id="54TuPCq6Pwy8j5fSVQwx-42" value="" style="endArrow=classic;html=1;rounded=0;exitX=0;exitY=0.5;exitDx=0;exitDy=0;entryX=1;entryY=0.5;entryDx=0;entryDy=0;" edge="1" parent="1" source="54TuPCq6Pwy8j5fSVQwx-32" target="54TuPCq6Pwy8j5fSVQwx-40">
          <mxGeometry width="50" height="50" relative="1" as="geometry">
            <mxPoint x="120" y="-190" as="sourcePoint" />
            <mxPoint x="170" y="-240" as="targetPoint" />
          </mxGeometry>
        </mxCell>
        <mxCell id="54TuPCq6Pwy8j5fSVQwx-43" value="" style="endArrow=classic;html=1;rounded=0;entryX=1;entryY=1;entryDx=0;entryDy=0;" edge="1" parent="1" source="54TuPCq6Pwy8j5fSVQwx-34" target="54TuPCq6Pwy8j5fSVQwx-40">
          <mxGeometry width="50" height="50" relative="1" as="geometry">
            <mxPoint x="-70" y="-40" as="sourcePoint" />
            <mxPoint x="-20" y="-90" as="targetPoint" />
          </mxGeometry>
        </mxCell>
        <mxCell id="54TuPCq6Pwy8j5fSVQwx-44" value="" style="endArrow=classic;html=1;rounded=0;entryX=0;entryY=0.5;entryDx=0;entryDy=0;exitX=0.5;exitY=0;exitDx=0;exitDy=0;" edge="1" parent="1" source="54TuPCq6Pwy8j5fSVQwx-40" target="54TuPCq6Pwy8j5fSVQwx-26">
          <mxGeometry width="50" height="50" relative="1" as="geometry">
            <mxPoint x="-70" y="-240" as="sourcePoint" />
            <mxPoint x="-20" y="-290" as="targetPoint" />
            <Array as="points">
              <mxPoint x="-80" y="-300" />
            </Array>
          </mxGeometry>
        </mxCell>
        <mxCell id="54TuPCq6Pwy8j5fSVQwx-45" value="Reset" style="ellipse;whiteSpace=wrap;html=1;" vertex="1" parent="1">
          <mxGeometry x="-80" y="-380" width="80" height="40" as="geometry" />
        </mxCell>
        <mxCell id="54TuPCq6Pwy8j5fSVQwx-46" value="" style="endArrow=classic;html=1;rounded=0;exitX=0;exitY=1;exitDx=0;exitDy=0;entryX=1;entryY=0;entryDx=0;entryDy=0;" edge="1" parent="1" source="54TuPCq6Pwy8j5fSVQwx-24" target="54TuPCq6Pwy8j5fSVQwx-45">
          <mxGeometry width="50" height="50" relative="1" as="geometry">
            <mxPoint x="-40" y="-270" as="sourcePoint" />
            <mxPoint x="10" y="-320" as="targetPoint" />
          </mxGeometry>
        </mxCell>
        <mxCell id="54TuPCq6Pwy8j5fSVQwx-47" value="" style="endArrow=classic;html=1;rounded=0;entryX=0;entryY=0;entryDx=0;entryDy=0;exitX=1;exitY=1;exitDx=0;exitDy=0;" edge="1" parent="1" source="54TuPCq6Pwy8j5fSVQwx-45" target="54TuPCq6Pwy8j5fSVQwx-26">
          <mxGeometry width="50" height="50" relative="1" as="geometry">
            <mxPoint x="-40" y="-270" as="sourcePoint" />
            <mxPoint x="10" y="-320" as="targetPoint" />
          </mxGeometry>
        </mxCell>
        <mxCell id="54TuPCq6Pwy8j5fSVQwx-48" value="&lt;font style=&quot;font-size: 8px;&quot;&gt;demande de pairing&lt;/font&gt;" style="text;html=1;align=center;verticalAlign=middle;whiteSpace=wrap;rounded=0;" vertex="1" parent="1">
          <mxGeometry x="-280" y="-410" width="60" height="30" as="geometry" />
        </mxCell>
        <mxCell id="54TuPCq6Pwy8j5fSVQwx-50" value="&lt;font style=&quot;font-size: 8px;&quot;&gt;demande de pairing&lt;/font&gt;" style="text;html=1;align=center;verticalAlign=middle;whiteSpace=wrap;rounded=0;" vertex="1" parent="1">
          <mxGeometry x="80" y="-410" width="60" height="30" as="geometry" />
        </mxCell>
        <mxCell id="54TuPCq6Pwy8j5fSVQwx-51" value="&lt;font style=&quot;font-size: 8px;&quot;&gt;demande de reset&lt;/font&gt;" style="text;html=1;align=center;verticalAlign=middle;whiteSpace=wrap;rounded=0;" vertex="1" parent="1">
          <mxGeometry x="-60" y="-410" width="60" height="30" as="geometry" />
        </mxCell>
        <mxCell id="54TuPCq6Pwy8j5fSVQwx-53" value="&lt;font style=&quot;font-size: 8px;&quot;&gt;message reçu&lt;/font&gt;" style="text;html=1;align=center;verticalAlign=middle;whiteSpace=wrap;rounded=0;" vertex="1" parent="1">
          <mxGeometry x="100" y="-290" width="60" height="30" as="geometry" />
        </mxCell>
        <mxCell id="54TuPCq6Pwy8j5fSVQwx-54" value="&lt;font style=&quot;font-size: 8px;&quot;&gt;door reconnu&lt;/font&gt;" style="text;html=1;align=center;verticalAlign=middle;whiteSpace=wrap;rounded=0;" vertex="1" parent="1">
          <mxGeometry x="160" y="-210" width="60" height="30" as="geometry" />
        </mxCell>
        <mxCell id="54TuPCq6Pwy8j5fSVQwx-55" value="&lt;span style=&quot;font-size: 8px;&quot;&gt;répondre&lt;/span&gt;&lt;div&gt;&lt;span style=&quot;font-size: 8px;&quot;&gt;rentrer&lt;/span&gt;&lt;/div&gt;" style="text;html=1;align=center;verticalAlign=middle;whiteSpace=wrap;rounded=0;" vertex="1" parent="1">
          <mxGeometry x="80" y="-200" width="60" height="30" as="geometry" />
        </mxCell>
        <mxCell id="54TuPCq6Pwy8j5fSVQwx-57" value="&lt;span style=&quot;font-size: 8px;&quot;&gt;répondre&lt;/span&gt;&lt;div&gt;&lt;span style=&quot;font-size: 8px;&quot;&gt;attendre&lt;/span&gt;&lt;/div&gt;" style="text;html=1;align=center;verticalAlign=middle;whiteSpace=wrap;rounded=0;" vertex="1" parent="1">
          <mxGeometry x="70" y="-165" width="60" height="45" as="geometry" />
        </mxCell>
        <mxCell id="54TuPCq6Pwy8j5fSVQwx-59" value="&lt;span style=&quot;font-size: 8px;&quot;&gt;répondre&lt;/span&gt;&lt;div&gt;&lt;span style=&quot;font-size: 8px;&quot;&gt;occuper&lt;/span&gt;&lt;/div&gt;" style="text;html=1;align=center;verticalAlign=middle;whiteSpace=wrap;rounded=0;" vertex="1" parent="1">
          <mxGeometry x="80" y="-110" width="60" height="30" as="geometry" />
        </mxCell>
        <mxCell id="54TuPCq6Pwy8j5fSVQwx-60" value="&lt;span style=&quot;font-size: 8px;&quot;&gt;fin attente&lt;/span&gt;" style="text;html=1;align=center;verticalAlign=middle;whiteSpace=wrap;rounded=0;" vertex="1" parent="1">
          <mxGeometry x="-90" y="-260" width="60" height="30" as="geometry" />
        </mxCell>
        <mxCell id="54TuPCq6Pwy8j5fSVQwx-61" value="&lt;span style=&quot;font-size: 8px;&quot;&gt;fin attente&lt;/span&gt;" style="text;html=1;align=center;verticalAlign=middle;whiteSpace=wrap;rounded=0;" vertex="1" parent="1">
          <mxGeometry x="-450" y="-260" width="60" height="30" as="geometry" />
        </mxCell>
        <mxCell id="54TuPCq6Pwy8j5fSVQwx-63" value="&lt;span style=&quot;font-size: 8px;&quot;&gt;demande&lt;/span&gt;&lt;div&gt;&lt;span style=&quot;font-size: 8px;&quot;&gt;rentrer&lt;/span&gt;&lt;/div&gt;" style="text;html=1;align=center;verticalAlign=middle;whiteSpace=wrap;rounded=0;" vertex="1" parent="1">
          <mxGeometry x="-270" y="-300" width="60" height="30" as="geometry" />
        </mxCell>
        <mxCell id="54TuPCq6Pwy8j5fSVQwx-64" value="&lt;font style=&quot;font-size: 8px;&quot;&gt;bell reconnu&lt;/font&gt;" style="text;html=1;align=center;verticalAlign=middle;whiteSpace=wrap;rounded=0;" vertex="1" parent="1">
          <mxGeometry x="-200" y="-210" width="60" height="30" as="geometry" />
        </mxCell>
        <mxCell id="54TuPCq6Pwy8j5fSVQwx-65" value="&lt;font style=&quot;font-size: 8px;&quot;&gt;reçu entrer&lt;/font&gt;" style="text;html=1;align=center;verticalAlign=middle;whiteSpace=wrap;rounded=0;" vertex="1" parent="1">
          <mxGeometry x="-280" y="-195" width="60" height="30" as="geometry" />
        </mxCell>
        <mxCell id="54TuPCq6Pwy8j5fSVQwx-66" value="&lt;font style=&quot;font-size: 8px;&quot;&gt;reçu&amp;nbsp;&lt;/font&gt;&lt;div&gt;&lt;font style=&quot;font-size: 8px;&quot;&gt;attendre&lt;/font&gt;&lt;/div&gt;" style="text;html=1;align=center;verticalAlign=middle;whiteSpace=wrap;rounded=0;" vertex="1" parent="1">
          <mxGeometry x="-290" y="-155" width="60" height="30" as="geometry" />
        </mxCell>
        <mxCell id="54TuPCq6Pwy8j5fSVQwx-67" value="&lt;span style=&quot;font-size: 8px;&quot;&gt;reçu&lt;/span&gt;&lt;div&gt;&lt;span style=&quot;font-size: 8px;&quot;&gt;occuper&lt;/span&gt;&lt;/div&gt;" style="text;html=1;align=center;verticalAlign=middle;whiteSpace=wrap;rounded=0;" vertex="1" parent="1">
          <mxGeometry x="-280" y="-110" width="60" height="30" as="geometry" />
        </mxCell>
      </root>
    </mxGraphModel>
  </diagram>
</mxfile>
